# xmcd
#
# Track frame offsets:
# 150
# 17605
# 35475
# 54311
# 72384
# 89648
# 103668
# 120030
# 134965
# 152212
# 166371
# 183948
# 202404
# 219157
#
# Disc length: 3153 seconds
#
#
# Revision: 0
# Processed by: cddbd v1.5.2PL0 Copyright (c) Steve Scherf et al.
# Submitted via: FreeRIP 2.945 
#
DISCID=c80c4f0e
DTITLE=Estakazero - Lua Minha
DYEAR=1900
DGENRE=Pop
TTITLE0=Inovação
TTITLE1=Lua minha
TTITLE2=De frente pro mar
TTITLE3=Náufrago ilhado
TTITLE4=Vou lembrar
TTITLE5=Aldeia
TTITLE6=Olhos perdidos
TTITLE7=Desencontros
TTITLE8=Onda que traz
TTITLE9=Tô acanhado
TTITLE10=Olhar de poeta
TTITLE11=Débora
TTITLE12=Encosta n'eu
TTITLE13=O som da chapada
EXTD=
EXTT0=
EXTT1=
EXTT2=
EXTT3=
EXTT4=
EXTT5=
EXTT6=
EXTT7=
EXTT8=
EXTT9=
EXTT10=
EXTT11=
EXTT12=
EXTT13=
PLAYORDER=
